# xmcd
#
# Track frame offsets:
#	150
#	13247
#	27714
#	42475
#	55033
#	65533
#	78824
#	88932
#	101051
#	118473
#	130062
#	138446
#
# Disc length: 2115 seconds
#
# Revision: 0
# Processed by: cddbd v1.5.2PL0 Copyright (c) Steve Scherf et al.
# Submitted via: EasyCDDAExtractor 11.1.0.1
#
DISCID=ad08410c
DTITLE=John Hammond - I Can Tell
DYEAR=1967
DGENRE=Blues
TTITLE0=I Wish You Would
TTITLE1=Im In The Mood
TTITLE2=I Can Tell
TTITLE3=Spoonful
TTITLE4=Coming Home
TTITLE5=My Baby Is Sweeter
TTITLE6=Brown Eyed Handsome Man
TTITLE7=Smokestack Lightning
TTITLE8=Five Years Long
TTITLE9=Youre So Fine
TTITLE10=Going To New York
TTITLE11=Forty Days Forty Nights
EXTD=
EXTT0=
EXTT1=
EXTT2=
EXTT3=
EXTT4=
EXTT5=
EXTT6=
EXTT7=
EXTT8=
EXTT9=
EXTT10=
EXTT11=
PLAYORDER=
